# xmcd
#
# Track frame offsets:
#	187
#	22875
#	55422
#	77060
#	101277
#	132802
#	161815
#	192400
#	213270
#
# Disc length: 3158
#
# Revision: 1
# Processed by: cddbd v1.5.1PL0 Copyright (c) Steve Scherf et al.
# Submitted via: CDex 1.51
# Normalized: r0:TRMNUM
#
DISCID=700c5409
DTITLE=Cannonball Adderley with Milt Jackson - Things Are Getting Better
DYEAR=1958
DGENRE=Jazz
TTITLE0=Blues Oriental
TTITLE1=Things Are Getting Better
TTITLE2=Serves Me Right (take5)
TTITLE3=Groovin' High
TTITLE4=The Sidewalks of New York (take5)
TTITLE5=Sound for Sid
TTITLE6=Just One of Those Things
TTITLE7=Serves Me Right (take4)
TTITLE8=The Sidewalks of New York (take4)
EXTD=YEAR: 1958
EXTT0=
EXTT1=
EXTT2=
EXTT3=
EXTT4=
EXTT5=
EXTT6=
EXTT7=
EXTT8=
PLAYORDER=
